{
  "accessors": [
    {
      "bufferView": 2,
      "componentType": 5126,
      "count": 3158,
      "max": [
        72.61731719970703,
        99.76395416259766,
        143.49053955078125
      ],
      "min": [
        -69.91583251953125,
        -75.57754516601563,
        -1.7889800071716309
      ],
      "type": "VEC3"
    },
    {
      "bufferView": 2,
      "byteOffset": 37896,
      "componentType": 5126,
      "count": 3158,
      "max": [
        0.9995929002761841,
        0.997410237789154,
        0.9990243315696716
      ],
      "min": [
        -0.9999905228614807,
        -0.998170018196106,
        -0.9998285174369812
      ],
      "type": "VEC3"
    },
    {
      "bufferView": 3,
      "componentType": 5126,
      "count": 3158,
      "max": [
        0.9999378323554993,
        0.9982887506484985,
        0.9995375275611877,
        1.0
      ],
      "min": [
        -0.9996183514595032,
        -0.999995768070221,
        -0.9978733658790588,
        -1.0
      ],
      "type": "VEC4"
    },
    {
      "bufferView": 1,
      "componentType": 5126,
      "count": 3158,
      "max": [
        0.9963889718055725,
        0.8914139866828918
      ],
      "min": [
        0.0010239999974146485,
        0.003851999994367361
      ],
      "type": "VEC2"
    },
    {
      "bufferView": 0,
      "componentType": 5125,
      "count": 16482,
      "type": "SCALAR"
    },
    {
      "bufferView": 2,
      "byteOffset": 75792,
      "componentType": 5126,
      "count": 2090,
      "max": [
        39.91845703125,
        73.82772064208984,
        162.01878356933594
      ],
      "min": [
        -38.85595703125,
        -36.32512283325195,
        24.85318374633789
      ],
      "type": "VEC3"
    },
    {
      "bufferView": 2,
      "byteOffset": 100872,
      "componentType": 5126,
      "count": 2090,
      "max": [
        0.9971958994865417,
        0.9986240267753601,
        0.9885925054550171
      ],
      "min": [
        -0.9971958994865417,
        -0.9972538948059082,
        -0.9968439936637878
      ],
      "type": "VEC3"
    },
    {
      "bufferView": 3,
      "byteOffset": 50528,
      "componentType": 5126,
      "count": 2090,
      "max": [
        0.9994736909866333,
        0.9998828768730164,
        0.9922532439231873,
        1.0
      ],
      "min": [
        -0.9994737505912781,
        -0.9932875037193298,
        -0.9985538125038147,
        -1.0
      ],
      "type": "VEC4"
    },
    {
      "bufferView": 1,
      "byteOffset": 25264,
      "componentType": 5126,
      "count": 2090,
      "max": [
        0.9960020184516907,
        0.9979709982872009
      ],
      "min": [
        0.0006880000000819564,
        0.7815549969673157
      ],
      "type": "VEC2"
    },
    {
      "bufferView": 0,
      "byteOffset": 65928,
      "componentType": 5125,
      "count": 8184,
      "type": "SCALAR"
    }
  ],
  "asset": {
    "extras": {
      "author": "Dorogan S. (https://sketchfab.com/dorogansergiy)",
      "license": "CC-BY-4.0 (http://creativecommons.org/licenses/by/4.0/)",
      "source": "https://sketchfab.com/3d-models/monster-plant-929cf55ec36d4dc0bc33966f53d49209",
      "title": "Monster Plant"
    },
    "generator": "Sketchfab-12.68.0",
    "version": "2.0"
  },
  "bufferViews": [
    {
      "buffer": 0,
      "byteLength": 98664,
      "name": "floatBufferViews",
      "target": 34963
    },
    {
      "buffer": 0,
      "byteLength": 41984,
      "byteOffset": 98664,
      "byteStride": 8,
      "name": "floatBufferViews",
      "target": 34962
    },
    {
      "buffer": 0,
      "byteLength": 125952,
      "byteOffset": 140648,
      "byteStride": 12,
      "name": "floatBufferViews",
      "target": 34962
    },
    {
      "buffer": 0,
      "byteLength": 83968,
      "byteOffset": 266600,
      "byteStride": 16,
      "name": "floatBufferViews",
      "target": 34962
    }
  ],
  "buffers": [
    {
      "byteLength": 350568,
      "uri": "scene.bin"
    }
  ],
  "extensionsRequired": [
    "KHR_materials_pbrSpecularGlossiness"
  ],
  "extensionsUsed": [
    "KHR_materials_pbrSpecularGlossiness"
  ],
  "images": [
    {
      "uri": "textures/lambert2SG_diffuse.jpeg"
    },
    {
      "uri": "textures/lambert2SG_emissive.jpeg"
    },
    {
      "uri": "textures/lambert2SG_normal.png"
    }
  ],
  "materials": [
    {
      "doubleSided": true,
      "emissiveFactor": [
        1.0,
        1.0,
        1.0
      ],
      "emissiveTexture": {
        "index": 1
      },
      "extensions": {
        "KHR_materials_pbrSpecularGlossiness": {
          "diffuseFactor": [
            1.0,
            1.0,
            1.0,
            1.0
          ],
          "diffuseTexture": {
            "index": 0
          },
          "glossinessFactor": 0.5383003048780488,
          "specularFactor": [
            0.0078125,
            0.0078125,
            0.0078125
          ]
        }
      },
      "name": "lambert2SG",
      "normalTexture": {
        "index": 2
      }
    }
  ],
  "meshes": [
    {
      "name": "Object_0",
      "primitives": [
        {
          "attributes": {
            "NORMAL": 1,
            "POSITION": 0,
            "TANGENT": 2,
            "TEXCOORD_0": 3
          },
          "indices": 4,
          "material": 0,
          "mode": 4
        }
      ]
    },
    {
      "name": "Object_1",
      "primitives": [
        {
          "attributes": {
            "NORMAL": 6,
            "POSITION": 5,
            "TANGENT": 7,
            "TEXCOORD_0": 8
          },
          "indices": 9,
          "material": 0,
          "mode": 4
        }
      ]
    }
  ],
  "nodes": [
    {
      "children": [
        1
      ],
      "matrix": [
        1.0,
        0.0,
        0.0,
        0.0,
        0.0,
        2.220446049250313e-16,
        -1.0,
        0.0,
        0.0,
        1.0,
        2.220446049250313e-16,
        0.0,
        0.0,
        0.0,
        0.0,
        1.0
      ],
      "name": "Sketchfab_model"
    },
    {
      "children": [
        2,
        3
      ],
      "name": "Plant_001.OBJ.cleaner.gles"
    },
    {
      "mesh": 0,
      "name": "Object_2"
    },
    {
      "mesh": 1,
      "name": "Object_3"
    }
  ],
  "samplers": [
    {
      "magFilter": 9729,
      "minFilter": 9987,
      "wrapS": 10497,
      "wrapT": 10497
    }
  ],
  "scene": 0,
  "scenes": [
    {
      "name": "Sketchfab_Scene",
      "nodes": [
        0
      ]
    }
  ],
  "textures": [
    {
      "sampler": 0,
      "source": 0
    },
    {
      "sampler": 0,
      "source": 1
    },
    {
      "sampler": 0,
      "source": 2
    }
  ]
}
